<svg width="203" height="203" viewBox="0 0 203 203" fill="none" xmlns="http://www.w3.org/2000/svg">
<path d="M68.7518 114.984C73.0451 114.984 76.5269 111.505 76.5288 107.212C76.532 107.21 76.539 59.7201 76.539 59.7201C76.539 59.2735 76.9002 58.9108 77.3486 58.9108H78.9952C79.4418 58.9108 79.8048 59.272 79.8048 59.7201C79.8048 59.7201 79.8048 192.955 79.8048 192.97C79.8048 198.509 84.2951 202.999 89.8337 202.999C95.3726 202.999 99.8626 198.509 99.8626 192.97C99.8626 192.955 99.8626 114.568 99.8626 114.568C99.8626 113.996 100.128 113.759 100.691 113.759H102.308C102.873 113.759 103.137 113.998 103.137 114.568C103.137 114.568 103.137 192.957 103.137 192.97C103.137 198.509 107.627 202.999 113.166 202.999C118.705 202.999 123.195 198.509 123.195 192.97C123.195 192.955 123.195 59.7201 123.195 59.7201C123.195 59.2735 123.556 58.9108 124.004 58.9108H125.651C126.098 58.9108 126.461 59.272 126.461 59.7201C126.461 59.7201 126.468 107.21 126.471 107.212C126.475 111.505 129.955 114.984 134.248 114.984C138.543 114.984 142.026 111.502 142.026 107.205C142.026 107.181 142.026 53.805 142.026 53.1683C142.026 42.5254 133.838 34.3365 123.605 34.3365C123.345 34.3365 109.588 34.3365 103.136 34.3365C103.136 34.3365 101.844 34.3365 99.8622 34.3365C93.4111 34.3365 79.6541 34.3365 79.3944 34.3365C69.1593 34.3365 60.9727 42.5232 60.9727 53.1683C60.9727 53.805 60.9727 107.181 60.9727 107.205C60.973 111.502 64.4552 114.984 68.7518 114.984Z" fill="#ccd8e0"/>
<path d="M101.502 29.8483C109.745 29.8483 116.426 23.1666 116.426 14.9242C116.426 6.68178 109.745 0 101.502 0C93.2599 0 86.5781 6.68178 86.5781 14.9242C86.5781 23.1666 93.2599 29.8483 101.502 29.8483Z" fill="#E9F1F7"/>
</svg>
