<svg width="15" height="15" viewBox="0 0 15 15" fill="none" xmlns="http://www.w3.org/2000/svg">
<path d="M3.95287 7.989H5.59712V14.7581C5.59712 14.8917 5.70541 15 5.83905 15H8.62692C8.76057 15 8.86886 14.8917 8.86886 14.7581V8.02089H10.7591C10.882 8.02089 10.9854 7.92866 10.9994 7.80658L11.2865 5.31455C11.2944 5.24598 11.2726 5.17732 11.2268 5.12589C11.1808 5.0744 11.1151 5.04494 11.0462 5.04494H8.86895V3.48281C8.86895 3.0119 9.1225 2.77311 9.62263 2.77311C9.69391 2.77311 11.0462 2.77311 11.0462 2.77311C11.1798 2.77311 11.2881 2.66477 11.2881 2.53118V0.243726C11.2881 0.110081 11.1798 0.00179032 11.0462 0.00179032H9.08433C9.07049 0.0011129 9.03976 0 8.99447 0C8.65407 0 7.47086 0.0668225 6.53621 0.926661C5.50063 1.8795 5.64458 3.02037 5.67899 3.21818V5.04489H3.95287C3.81923 5.04489 3.71094 5.15318 3.71094 5.28682V7.74702C3.71094 7.88066 3.81923 7.989 3.95287 7.989Z" fill="#E9F1F7"/>
</svg>
